<?xml version="1.0" encoding="utf-8" standalone="no"?>
<!DOCTYPE svg PUBLIC "-//W3C//DTD SVG 1.1//EN"
  "http://www.w3.org/Graphics/SVG/1.1/DTD/svg11.dtd">
<svg height="568.50125pt" version="1.1" viewBox="0 0 783.990087 568.50125" width="783.990087pt" xmlns="http://www.w3.org/2000/svg" xmlns:xlink="http://www.w3.org/1999/xlink">
 <metadata>
  <rdf:RDF xmlns:cc="http://creativecommons.org/ns#" xmlns:dc="http://purl.org/dc/elements/1.1/" xmlns:rdf="http://www.w3.org/1999/02/22-rdf-syntax-ns#">
   <cc:Work>
    <dc:type rdf:resource="http://purl.org/dc/dcmitype/StillImage"/>
    <dc:date>2021-11-08T10:16:33.890009</dc:date>
    <dc:format>image/svg+xml</dc:format>
    <dc:creator>
     <cc:Agent>
      <dc:title>Matplotlib v3.4.3, https://matplotlib.org/</dc:title>
     </cc:Agent>
    </dc:creator>
   </cc:Work>
  </rdf:RDF>
 </metadata>
 <defs>
  <style type="text/css">*{stroke-linecap:butt;stroke-linejoin:round;}</style>
 </defs>
 <g id="figure_1">
  <g id="patch_1">
   <path d="M 0 568.50125 
L 783.990087 568.50125 
L 783.990087 0 
L 0 0 
z
" style="fill:#ffffff;"/>
  </g>
  <g id="axes_1">
   <g id="patch_2">
    <path d="M 53.410625 270.906562 
L 407.016878 270.906562 
L 407.016878 27.28 
L 53.410625 27.28 
z
" style="fill:#eaeaf2;"/>
   </g>
   <g id="matplotlib.axis_1"/>
   <g id="matplotlib.axis_2">
    <g id="ytick_1">
     <g id="line2d_1"/>
     <g id="text_1">
      <!-- 0.00 -->
      <g style="fill:#262626;" transform="translate(26.949688 274.485469)scale(0.1 -0.1)">
       <defs>
        <path d="M 266 2259 
Q 266 3072 433 3567 
Q 600 4063 929 4331 
Q 1259 4600 1759 4600 
Q 2128 4600 2406 4451 
Q 2684 4303 2865 4023 
Q 3047 3744 3150 3342 
Q 3253 2941 3253 2259 
Q 3253 1453 3087 958 
Q 2922 463 2592 192 
Q 2263 -78 1759 -78 
Q 1097 -78 719 397 
Q 266 969 266 2259 
z
M 844 2259 
Q 844 1131 1108 757 
Q 1372 384 1759 384 
Q 2147 384 2411 759 
Q 2675 1134 2675 2259 
Q 2675 3391 2411 3762 
Q 2147 4134 1753 4134 
Q 1366 4134 1134 3806 
Q 844 3388 844 2259 
z
" id="ArialMT-30" transform="scale(0.015625)"/>
        <path d="M 581 0 
L 581 641 
L 1222 641 
L 1222 0 
L 581 0 
z
" id="ArialMT-2e" transform="scale(0.015625)"/>
       </defs>
       <use xlink:href="#ArialMT-30"/>
       <use x="55.615234" xlink:href="#ArialMT-2e"/>
       <use x="83.398438" xlink:href="#ArialMT-30"/>
       <use x="139.013672" xlink:href="#ArialMT-30"/>
      </g>
     </g>
    </g>
    <g id="ytick_2">
     <g id="line2d_2"/>
     <g id="text_2">
      <!-- 0.01 -->
      <g style="fill:#262626;" transform="translate(26.949688 223.493079)scale(0.1 -0.1)">
       <defs>
        <path d="M 2384 0 
L 1822 0 
L 1822 3584 
Q 1619 3391 1289 3197 
Q 959 3003 697 2906 
L 697 3450 
Q 1169 3672 1522 3987 
Q 1875 4303 2022 4600 
L 2384 4600 
L 2384 0 
z
" id="ArialMT-31" transform="scale(0.015625)"/>
       </defs>
       <use xlink:href="#ArialMT-30"/>
       <use x="55.615234" xlink:href="#ArialMT-2e"/>
       <use x="83.398438" xlink:href="#ArialMT-30"/>
       <use x="139.013672" xlink:href="#ArialMT-31"/>
      </g>
     </g>
    </g>
    <g id="ytick_3">
     <g id="line2d_3"/>
     <g id="text_3">
      <!-- 0.02 -->
      <g style="fill:#262626;" transform="translate(26.949688 172.50069)scale(0.1 -0.1)">
       <defs>
        <path d="M 3222 541 
L 3222 0 
L 194 0 
Q 188 203 259 391 
Q 375 700 629 1000 
Q 884 1300 1366 1694 
Q 2113 2306 2375 2664 
Q 2638 3022 2638 3341 
Q 2638 3675 2398 3904 
Q 2159 4134 1775 4134 
Q 1369 4134 1125 3890 
Q 881 3647 878 3216 
L 300 3275 
Q 359 3922 746 4261 
Q 1134 4600 1788 4600 
Q 2447 4600 2831 4234 
Q 3216 3869 3216 3328 
Q 3216 3053 3103 2787 
Q 2991 2522 2730 2228 
Q 2469 1934 1863 1422 
Q 1356 997 1212 845 
Q 1069 694 975 541 
L 3222 541 
z
" id="ArialMT-32" transform="scale(0.015625)"/>
       </defs>
       <use xlink:href="#ArialMT-30"/>
       <use x="55.615234" xlink:href="#ArialMT-2e"/>
       <use x="83.398438" xlink:href="#ArialMT-30"/>
       <use x="139.013672" xlink:href="#ArialMT-32"/>
      </g>
     </g>
    </g>
    <g id="ytick_4">
     <g id="line2d_4"/>
     <g id="text_4">
      <!-- 0.03 -->
      <g style="fill:#262626;" transform="translate(26.949688 121.508301)scale(0.1 -0.1)">
       <defs>
        <path d="M 269 1209 
L 831 1284 
Q 928 806 1161 595 
Q 1394 384 1728 384 
Q 2125 384 2398 659 
Q 2672 934 2672 1341 
Q 2672 1728 2419 1979 
Q 2166 2231 1775 2231 
Q 1616 2231 1378 2169 
L 1441 2663 
Q 1497 2656 1531 2656 
Q 1891 2656 2178 2843 
Q 2466 3031 2466 3422 
Q 2466 3731 2256 3934 
Q 2047 4138 1716 4138 
Q 1388 4138 1169 3931 
Q 950 3725 888 3313 
L 325 3413 
Q 428 3978 793 4289 
Q 1159 4600 1703 4600 
Q 2078 4600 2393 4439 
Q 2709 4278 2876 4000 
Q 3044 3722 3044 3409 
Q 3044 3113 2884 2869 
Q 2725 2625 2413 2481 
Q 2819 2388 3044 2092 
Q 3269 1797 3269 1353 
Q 3269 753 2831 336 
Q 2394 -81 1725 -81 
Q 1122 -81 723 278 
Q 325 638 269 1209 
z
" id="ArialMT-33" transform="scale(0.015625)"/>
       </defs>
       <use xlink:href="#ArialMT-30"/>
       <use x="55.615234" xlink:href="#ArialMT-2e"/>
       <use x="83.398438" xlink:href="#ArialMT-30"/>
       <use x="139.013672" xlink:href="#ArialMT-33"/>
      </g>
     </g>
    </g>
    <g id="ytick_5">
     <g id="line2d_5"/>
     <g id="text_5">
      <!-- 0.04 -->
      <g style="fill:#262626;" transform="translate(26.949688 70.515912)scale(0.1 -0.1)">
       <defs>
        <path d="M 2069 0 
L 2069 1097 
L 81 1097 
L 81 1613 
L 2172 4581 
L 2631 4581 
L 2631 1613 
L 3250 1613 
L 3250 1097 
L 2631 1097 
L 2631 0 
L 2069 0 
z
M 2069 1613 
L 2069 3678 
L 634 1613 
L 2069 1613 
z
" id="ArialMT-34" transform="scale(0.015625)"/>
       </defs>
       <use xlink:href="#ArialMT-30"/>
       <use x="55.615234" xlink:href="#ArialMT-2e"/>
       <use x="83.398438" xlink:href="#ArialMT-30"/>
       <use x="139.013672" xlink:href="#ArialMT-34"/>
      </g>
     </g>
    </g>
    <g id="text_6">
     <!-- probability -->
     <g style="fill:#262626;" transform="translate(20.634531 174.16125)rotate(-90)scale(0.11 -0.11)">
      <defs>
       <path d="M 422 -1272 
L 422 3319 
L 934 3319 
L 934 2888 
Q 1116 3141 1344 3267 
Q 1572 3394 1897 3394 
Q 2322 3394 2647 3175 
Q 2972 2956 3137 2557 
Q 3303 2159 3303 1684 
Q 3303 1175 3120 767 
Q 2938 359 2589 142 
Q 2241 -75 1856 -75 
Q 1575 -75 1351 44 
Q 1128 163 984 344 
L 984 -1272 
L 422 -1272 
z
M 931 1641 
Q 931 1000 1190 694 
Q 1450 388 1819 388 
Q 2194 388 2461 705 
Q 2728 1022 2728 1688 
Q 2728 2322 2467 2637 
Q 2206 2953 1844 2953 
Q 1484 2953 1207 2617 
Q 931 2281 931 1641 
z
" id="ArialMT-70" transform="scale(0.015625)"/>
       <path d="M 416 0 
L 416 3319 
L 922 3319 
L 922 2816 
Q 1116 3169 1280 3281 
Q 1444 3394 1641 3394 
Q 1925 3394 2219 3213 
L 2025 2691 
Q 1819 2813 1613 2813 
Q 1428 2813 1281 2702 
Q 1134 2591 1072 2394 
Q 978 2094 978 1738 
L 978 0 
L 416 0 
z
" id="ArialMT-72" transform="scale(0.015625)"/>
       <path d="M 213 1659 
Q 213 2581 725 3025 
Q 1153 3394 1769 3394 
Q 2453 3394 2887 2945 
Q 3322 2497 3322 1706 
Q 3322 1066 3130 698 
Q 2938 331 2570 128 
Q 2203 -75 1769 -75 
Q 1072 -75 642 372 
Q 213 819 213 1659 
z
M 791 1659 
Q 791 1022 1069 705 
Q 1347 388 1769 388 
Q 2188 388 2466 706 
Q 2744 1025 2744 1678 
Q 2744 2294 2464 2611 
Q 2184 2928 1769 2928 
Q 1347 2928 1069 2612 
Q 791 2297 791 1659 
z
" id="ArialMT-6f" transform="scale(0.015625)"/>
       <path d="M 941 0 
L 419 0 
L 419 4581 
L 981 4581 
L 981 2947 
Q 1338 3394 1891 3394 
Q 2197 3394 2470 3270 
Q 2744 3147 2920 2923 
Q 3097 2700 3197 2384 
Q 3297 2069 3297 1709 
Q 3297 856 2875 390 
Q 2453 -75 1863 -75 
Q 1275 -75 941 416 
L 941 0 
z
M 934 1684 
Q 934 1088 1097 822 
Q 1363 388 1816 388 
Q 2184 388 2453 708 
Q 2722 1028 2722 1663 
Q 2722 2313 2464 2622 
Q 2206 2931 1841 2931 
Q 1472 2931 1203 2611 
Q 934 2291 934 1684 
z
" id="ArialMT-62" transform="scale(0.015625)"/>
       <path d="M 2588 409 
Q 2275 144 1986 34 
Q 1697 -75 1366 -75 
Q 819 -75 525 192 
Q 231 459 231 875 
Q 231 1119 342 1320 
Q 453 1522 633 1644 
Q 813 1766 1038 1828 
Q 1203 1872 1538 1913 
Q 2219 1994 2541 2106 
Q 2544 2222 2544 2253 
Q 2544 2597 2384 2738 
Q 2169 2928 1744 2928 
Q 1347 2928 1158 2789 
Q 969 2650 878 2297 
L 328 2372 
Q 403 2725 575 2942 
Q 747 3159 1072 3276 
Q 1397 3394 1825 3394 
Q 2250 3394 2515 3294 
Q 2781 3194 2906 3042 
Q 3031 2891 3081 2659 
Q 3109 2516 3109 2141 
L 3109 1391 
Q 3109 606 3145 398 
Q 3181 191 3288 0 
L 2700 0 
Q 2613 175 2588 409 
z
M 2541 1666 
Q 2234 1541 1622 1453 
Q 1275 1403 1131 1340 
Q 988 1278 909 1158 
Q 831 1038 831 891 
Q 831 666 1001 516 
Q 1172 366 1500 366 
Q 1825 366 2078 508 
Q 2331 650 2450 897 
Q 2541 1088 2541 1459 
L 2541 1666 
z
" id="ArialMT-61" transform="scale(0.015625)"/>
       <path d="M 425 3934 
L 425 4581 
L 988 4581 
L 988 3934 
L 425 3934 
z
M 425 0 
L 425 3319 
L 988 3319 
L 988 0 
L 425 0 
z
" id="ArialMT-69" transform="scale(0.015625)"/>
       <path d="M 409 0 
L 409 4581 
L 972 4581 
L 972 0 
L 409 0 
z
" id="ArialMT-6c" transform="scale(0.015625)"/>
       <path d="M 1650 503 
L 1731 6 
Q 1494 -44 1306 -44 
Q 1000 -44 831 53 
Q 663 150 594 308 
Q 525 466 525 972 
L 525 2881 
L 113 2881 
L 113 3319 
L 525 3319 
L 525 4141 
L 1084 4478 
L 1084 3319 
L 1650 3319 
L 1650 2881 
L 1084 2881 
L 1084 941 
Q 1084 700 1114 631 
Q 1144 563 1211 522 
Q 1278 481 1403 481 
Q 1497 481 1650 503 
z
" id="ArialMT-74" transform="scale(0.015625)"/>
       <path d="M 397 -1278 
L 334 -750 
Q 519 -800 656 -800 
Q 844 -800 956 -737 
Q 1069 -675 1141 -563 
Q 1194 -478 1313 -144 
Q 1328 -97 1363 -6 
L 103 3319 
L 709 3319 
L 1400 1397 
Q 1534 1031 1641 628 
Q 1738 1016 1872 1384 
L 2581 3319 
L 3144 3319 
L 1881 -56 
Q 1678 -603 1566 -809 
Q 1416 -1088 1222 -1217 
Q 1028 -1347 759 -1347 
Q 597 -1347 397 -1278 
z
" id="ArialMT-79" transform="scale(0.015625)"/>
      </defs>
      <use xlink:href="#ArialMT-70"/>
      <use x="55.615234" xlink:href="#ArialMT-72"/>
      <use x="88.916016" xlink:href="#ArialMT-6f"/>
      <use x="144.53125" xlink:href="#ArialMT-62"/>
      <use x="200.146484" xlink:href="#ArialMT-61"/>
      <use x="255.761719" xlink:href="#ArialMT-62"/>
      <use x="311.376953" xlink:href="#ArialMT-69"/>
      <use x="333.59375" xlink:href="#ArialMT-6c"/>
      <use x="355.810547" xlink:href="#ArialMT-69"/>
      <use x="378.027344" xlink:href="#ArialMT-74"/>
      <use x="405.810547" xlink:href="#ArialMT-79"/>
     </g>
    </g>
   </g>
   <g id="patch_3">
    <path clip-path="url(#p884d8e8292)" d="M 69.483636 270.906562 
L 101.629659 270.906562 
L 101.629659 255.498633 
L 69.483636 255.498633 
z
" style="fill:#4c72b0;opacity:0.6;"/>
   </g>
   <g id="patch_4">
    <path clip-path="url(#p884d8e8292)" d="M 101.629659 270.906562 
L 133.775682 270.906562 
L 133.775682 221.963726 
L 101.629659 221.963726 
z
" style="fill:#4c72b0;opacity:0.6;"/>
   </g>
   <g id="patch_5">
    <path clip-path="url(#p884d8e8292)" d="M 133.775682 270.906562 
L 165.921705 270.906562 
L 165.921705 151.268518 
L 133.775682 151.268518 
z
" style="fill:#4c72b0;opacity:0.6;"/>
   </g>
   <g id="patch_6">
    <path clip-path="url(#p884d8e8292)" d="M 165.921705 270.906562 
L 198.067728 270.906562 
L 198.067728 86.011403 
L 165.921705 86.011403 
z
" style="fill:#4c72b0;opacity:0.6;"/>
   </g>
   <g id="patch_7">
    <path clip-path="url(#p884d8e8292)" d="M 198.067728 270.906562 
L 230.213751 270.906562 
L 230.213751 38.881265 
L 198.067728 38.881265 
z
" style="fill:#4c72b0;opacity:0.6;"/>
   </g>
   <g id="patch_8">
    <path clip-path="url(#p884d8e8292)" d="M 230.213751 270.906562 
L 262.359774 270.906562 
L 262.359774 104.13838 
L 230.213751 104.13838 
z
" style="fill:#4c72b0;opacity:0.6;"/>
   </g>
   <g id="patch_9">
    <path clip-path="url(#p884d8e8292)" d="M 262.359774 270.906562 
L 294.505797 270.906562 
L 294.505797 189.335169 
L 262.359774 189.335169 
z
" style="fill:#4c72b0;opacity:0.6;"/>
   </g>
   <g id="patch_10">
    <path clip-path="url(#p884d8e8292)" d="M 294.505797 270.906562 
L 326.65182 270.906562 
L 326.65182 225.589122 
L 294.505797 225.589122 
z
" style="fill:#4c72b0;opacity:0.6;"/>
   </g>
   <g id="patch_11">
    <path clip-path="url(#p884d8e8292)" d="M 326.65182 270.906562 
L 358.797843 270.906562 
L 358.797843 262.749423 
L 326.65182 262.749423 
z
" style="fill:#4c72b0;opacity:0.6;"/>
   </g>
   <g id="patch_12">
    <path clip-path="url(#p884d8e8292)" d="M 358.797843 270.906562 
L 390.943866 270.906562 
L 390.943866 267.281167 
L 358.797843 267.281167 
z
" style="fill:#4c72b0;opacity:0.6;"/>
   </g>
   <g id="line2d_6">
    <path clip-path="url(#p884d8e8292)" d="M 210.042627 270.906562 
L 210.042627 27.28 
" style="fill:none;stroke:#ff0000;stroke-dasharray:6.475,2.8;stroke-dashoffset:0;stroke-opacity:0.7;stroke-width:1.75;"/>
   </g>
   <g id="line2d_7">
    <path clip-path="url(#p884d8e8292)" d="M 165.121203 270.906562 
L 165.121203 27.28 
" style="fill:none;stroke:#008000;stroke-dasharray:6.475,2.8;stroke-dashoffset:0;stroke-opacity:0.7;stroke-width:1.75;"/>
   </g>
   <g id="line2d_8">
    <path clip-path="url(#p884d8e8292)" d="M 233.932592 270.906562 
L 233.932592 27.28 
" style="fill:none;stroke:#ffff00;stroke-dasharray:6.475,2.8;stroke-dashoffset:0;stroke-opacity:0.7;stroke-width:1.75;"/>
   </g>
   <g id="patch_13">
    <path d="M 53.410625 270.906562 
L 53.410625 27.28 
" style="fill:none;"/>
   </g>
   <g id="patch_14">
    <path d="M 407.016878 270.906562 
L 407.016878 27.28 
" style="fill:none;"/>
   </g>
   <g id="patch_15">
    <path d="M 53.410625 270.906562 
L 407.016878 270.906562 
" style="fill:none;"/>
   </g>
   <g id="patch_16">
    <path d="M 53.410625 27.28 
L 407.016878 27.28 
" style="fill:none;"/>
   </g>
   <g id="legend_1">
    <g id="line2d_9">
     <path d="M 294.97469 39.937812 
L 314.97469 39.937812 
" style="fill:none;stroke:#ff0000;stroke-dasharray:6.475,2.8;stroke-dashoffset:0;stroke-opacity:0.7;stroke-width:1.75;"/>
    </g>
    <g id="line2d_10"/>
    <g id="text_7">
     <!-- mean of 1000iter -->
     <g style="fill:#262626;" transform="translate(322.97469 43.437812)scale(0.1 -0.1)">
      <defs>
       <path d="M 422 0 
L 422 3319 
L 925 3319 
L 925 2853 
Q 1081 3097 1340 3245 
Q 1600 3394 1931 3394 
Q 2300 3394 2536 3241 
Q 2772 3088 2869 2813 
Q 3263 3394 3894 3394 
Q 4388 3394 4653 3120 
Q 4919 2847 4919 2278 
L 4919 0 
L 4359 0 
L 4359 2091 
Q 4359 2428 4304 2576 
Q 4250 2725 4106 2815 
Q 3963 2906 3769 2906 
Q 3419 2906 3187 2673 
Q 2956 2441 2956 1928 
L 2956 0 
L 2394 0 
L 2394 2156 
Q 2394 2531 2256 2718 
Q 2119 2906 1806 2906 
Q 1569 2906 1367 2781 
Q 1166 2656 1075 2415 
Q 984 2175 984 1722 
L 984 0 
L 422 0 
z
" id="ArialMT-6d" transform="scale(0.015625)"/>
       <path d="M 2694 1069 
L 3275 997 
Q 3138 488 2766 206 
Q 2394 -75 1816 -75 
Q 1088 -75 661 373 
Q 234 822 234 1631 
Q 234 2469 665 2931 
Q 1097 3394 1784 3394 
Q 2450 3394 2872 2941 
Q 3294 2488 3294 1666 
Q 3294 1616 3291 1516 
L 816 1516 
Q 847 969 1125 678 
Q 1403 388 1819 388 
Q 2128 388 2347 550 
Q 2566 713 2694 1069 
z
M 847 1978 
L 2700 1978 
Q 2663 2397 2488 2606 
Q 2219 2931 1791 2931 
Q 1403 2931 1139 2672 
Q 875 2413 847 1978 
z
" id="ArialMT-65" transform="scale(0.015625)"/>
       <path d="M 422 0 
L 422 3319 
L 928 3319 
L 928 2847 
Q 1294 3394 1984 3394 
Q 2284 3394 2536 3286 
Q 2788 3178 2913 3003 
Q 3038 2828 3088 2588 
Q 3119 2431 3119 2041 
L 3119 0 
L 2556 0 
L 2556 2019 
Q 2556 2363 2490 2533 
Q 2425 2703 2258 2804 
Q 2091 2906 1866 2906 
Q 1506 2906 1245 2678 
Q 984 2450 984 1813 
L 984 0 
L 422 0 
z
" id="ArialMT-6e" transform="scale(0.015625)"/>
       <path id="ArialMT-20" transform="scale(0.015625)"/>
       <path d="M 556 0 
L 556 2881 
L 59 2881 
L 59 3319 
L 556 3319 
L 556 3672 
Q 556 4006 616 4169 
Q 697 4388 901 4523 
Q 1106 4659 1475 4659 
Q 1713 4659 2000 4603 
L 1916 4113 
Q 1741 4144 1584 4144 
Q 1328 4144 1222 4034 
Q 1116 3925 1116 3625 
L 1116 3319 
L 1763 3319 
L 1763 2881 
L 1116 2881 
L 1116 0 
L 556 0 
z
" id="ArialMT-66" transform="scale(0.015625)"/>
      </defs>
      <use xlink:href="#ArialMT-6d"/>
      <use x="83.300781" xlink:href="#ArialMT-65"/>
      <use x="138.916016" xlink:href="#ArialMT-61"/>
      <use x="194.53125" xlink:href="#ArialMT-6e"/>
      <use x="250.146484" xlink:href="#ArialMT-20"/>
      <use x="277.929688" xlink:href="#ArialMT-6f"/>
      <use x="333.544922" xlink:href="#ArialMT-66"/>
      <use x="361.328125" xlink:href="#ArialMT-20"/>
      <use x="389.111328" xlink:href="#ArialMT-31"/>
      <use x="444.726562" xlink:href="#ArialMT-30"/>
      <use x="500.341797" xlink:href="#ArialMT-30"/>
      <use x="555.957031" xlink:href="#ArialMT-30"/>
      <use x="611.572266" xlink:href="#ArialMT-69"/>
      <use x="633.789062" xlink:href="#ArialMT-74"/>
      <use x="661.572266" xlink:href="#ArialMT-65"/>
      <use x="717.1875" xlink:href="#ArialMT-72"/>
     </g>
    </g>
    <g id="line2d_11">
     <path d="M 294.97469 54.083125 
L 314.97469 54.083125 
" style="fill:none;stroke:#008000;stroke-dasharray:6.475,2.8;stroke-dashoffset:0;stroke-opacity:0.7;stroke-width:1.75;"/>
    </g>
    <g id="line2d_12"/>
    <g id="text_8">
     <!-- one fit -->
     <g style="fill:#262626;" transform="translate(322.97469 57.583125)scale(0.1 -0.1)">
      <use xlink:href="#ArialMT-6f"/>
      <use x="55.615234" xlink:href="#ArialMT-6e"/>
      <use x="111.230469" xlink:href="#ArialMT-65"/>
      <use x="166.845703" xlink:href="#ArialMT-20"/>
      <use x="194.628906" xlink:href="#ArialMT-66"/>
      <use x="222.412109" xlink:href="#ArialMT-69"/>
      <use x="244.628906" xlink:href="#ArialMT-74"/>
     </g>
    </g>
    <g id="line2d_13">
     <path d="M 294.97469 68.228437 
L 314.97469 68.228437 
" style="fill:none;stroke:#ffff00;stroke-dasharray:6.475,2.8;stroke-dashoffset:0;stroke-opacity:0.7;stroke-width:1.75;"/>
    </g>
    <g id="line2d_14"/>
    <g id="text_9">
     <!-- true tau -->
     <g style="fill:#262626;" transform="translate(322.97469 71.728437)scale(0.1 -0.1)">
      <defs>
       <path d="M 2597 0 
L 2597 488 
Q 2209 -75 1544 -75 
Q 1250 -75 995 37 
Q 741 150 617 320 
Q 494 491 444 738 
Q 409 903 409 1263 
L 409 3319 
L 972 3319 
L 972 1478 
Q 972 1038 1006 884 
Q 1059 663 1231 536 
Q 1403 409 1656 409 
Q 1909 409 2131 539 
Q 2353 669 2445 892 
Q 2538 1116 2538 1541 
L 2538 3319 
L 3100 3319 
L 3100 0 
L 2597 0 
z
" id="ArialMT-75" transform="scale(0.015625)"/>
      </defs>
      <use xlink:href="#ArialMT-74"/>
      <use x="27.783203" xlink:href="#ArialMT-72"/>
      <use x="61.083984" xlink:href="#ArialMT-75"/>
      <use x="116.699219" xlink:href="#ArialMT-65"/>
      <use x="172.314453" xlink:href="#ArialMT-20"/>
      <use x="200.097656" xlink:href="#ArialMT-74"/>
      <use x="227.880859" xlink:href="#ArialMT-61"/>
      <use x="283.496094" xlink:href="#ArialMT-75"/>
     </g>
    </g>
   </g>
  </g>
  <g id="axes_2">
   <g id="patch_17">
    <path d="M 417.816878 270.906562 
L 771.42313 270.906562 
L 771.42313 27.28 
L 417.816878 27.28 
z
" style="fill:#eaeaf2;"/>
   </g>
   <g id="matplotlib.axis_3"/>
   <g id="matplotlib.axis_4"/>
   <g id="patch_18">
    <path clip-path="url(#pcf0bea6e9d)" d="M 433.889889 270.906562 
L 466.035912 270.906562 
L 466.035912 257.622671 
L 433.889889 257.622671 
z
" style="fill:#4c72b0;opacity:0.6;"/>
   </g>
   <g id="patch_19">
    <path clip-path="url(#pcf0bea6e9d)" d="M 466.035912 270.906562 
L 498.181935 270.906562 
L 498.181935 228.398111 
L 466.035912 228.398111 
z
" style="fill:#4c72b0;opacity:0.6;"/>
   </g>
   <g id="patch_20">
    <path clip-path="url(#pcf0bea6e9d)" d="M 498.181935 270.906562 
L 530.327958 270.906562 
L 530.327958 151.351543 
L 498.181935 151.351543 
z
" style="fill:#4c72b0;opacity:0.6;"/>
   </g>
   <g id="patch_21">
    <path clip-path="url(#pcf0bea6e9d)" d="M 530.327958 270.906562 
L 562.473981 270.906562 
L 562.473981 80.504124 
L 530.327958 80.504124 
z
" style="fill:#4c72b0;opacity:0.6;"/>
   </g>
   <g id="patch_22">
    <path clip-path="url(#pcf0bea6e9d)" d="M 562.473981 270.906562 
L 594.620004 270.906562 
L 594.620004 38.881265 
L 562.473981 38.881265 
z
" style="fill:#4c72b0;opacity:0.6;"/>
   </g>
   <g id="patch_23">
    <path clip-path="url(#pcf0bea6e9d)" d="M 594.620004 270.906562 
L 626.766027 270.906562 
L 626.766027 112.385462 
L 594.620004 112.385462 
z
" style="fill:#4c72b0;opacity:0.6;"/>
   </g>
   <g id="patch_24">
    <path clip-path="url(#pcf0bea6e9d)" d="M 626.766027 270.906562 
L 658.91205 270.906562 
L 658.91205 189.432031 
L 626.766027 189.432031 
z
" style="fill:#4c72b0;opacity:0.6;"/>
   </g>
   <g id="patch_25">
    <path clip-path="url(#pcf0bea6e9d)" d="M 658.91205 270.906562 
L 691.058073 270.906562 
L 691.058073 233.711667 
L 658.91205 233.711667 
z
" style="fill:#4c72b0;opacity:0.6;"/>
   </g>
   <g id="patch_26">
    <path clip-path="url(#pcf0bea6e9d)" d="M 691.058073 270.906562 
L 723.204096 270.906562 
L 723.204096 263.821821 
L 691.058073 263.821821 
z
" style="fill:#4c72b0;opacity:0.6;"/>
   </g>
   <g id="patch_27">
    <path clip-path="url(#pcf0bea6e9d)" d="M 723.204096 270.906562 
L 755.350119 270.906562 
L 755.350119 267.364192 
L 723.204096 267.364192 
z
" style="fill:#4c72b0;opacity:0.6;"/>
   </g>
   <g id="line2d_15">
    <path clip-path="url(#pcf0bea6e9d)" d="M 574.278784 270.906562 
L 574.278784 27.28 
" style="fill:none;stroke:#ff0000;stroke-dasharray:6.475,2.8;stroke-dashoffset:0;stroke-opacity:0.7;stroke-width:1.75;"/>
   </g>
   <g id="line2d_16">
    <path clip-path="url(#pcf0bea6e9d)" d="M 603.63653 270.906562 
L 603.63653 27.28 
" style="fill:none;stroke:#008000;stroke-dasharray:6.475,2.8;stroke-dashoffset:0;stroke-opacity:0.7;stroke-width:1.75;"/>
   </g>
   <g id="line2d_17">
    <path clip-path="url(#pcf0bea6e9d)" d="M 598.549229 270.906562 
L 598.549229 27.28 
" style="fill:none;stroke:#ffff00;stroke-dasharray:6.475,2.8;stroke-dashoffset:0;stroke-opacity:0.7;stroke-width:1.75;"/>
   </g>
   <g id="patch_28">
    <path d="M 417.816878 270.906562 
L 417.816878 27.28 
" style="fill:none;"/>
   </g>
   <g id="patch_29">
    <path d="M 771.42313 270.906562 
L 771.42313 27.28 
" style="fill:none;"/>
   </g>
   <g id="patch_30">
    <path d="M 417.816878 270.906562 
L 771.42313 270.906562 
" style="fill:none;"/>
   </g>
   <g id="patch_31">
    <path d="M 417.816878 27.28 
L 771.42313 27.28 
" style="fill:none;"/>
   </g>
  </g>
  <g id="axes_3">
   <g id="patch_32">
    <path d="M 53.410625 530.833125 
L 407.016878 530.833125 
L 407.016878 287.206562 
L 53.410625 287.206562 
z
" style="fill:#eaeaf2;"/>
   </g>
   <g id="matplotlib.axis_5">
    <g id="xtick_1">
     <g id="line2d_18"/>
     <g id="text_10">
      <!-- 90 -->
      <g style="fill:#262626;" transform="translate(51.144874 544.990937)scale(0.1 -0.1)">
       <defs>
        <path d="M 350 1059 
L 891 1109 
Q 959 728 1153 556 
Q 1347 384 1650 384 
Q 1909 384 2104 503 
Q 2300 622 2425 820 
Q 2550 1019 2634 1356 
Q 2719 1694 2719 2044 
Q 2719 2081 2716 2156 
Q 2547 1888 2255 1720 
Q 1963 1553 1622 1553 
Q 1053 1553 659 1965 
Q 266 2378 266 3053 
Q 266 3750 677 4175 
Q 1088 4600 1706 4600 
Q 2153 4600 2523 4359 
Q 2894 4119 3086 3673 
Q 3278 3228 3278 2384 
Q 3278 1506 3087 986 
Q 2897 466 2520 194 
Q 2144 -78 1638 -78 
Q 1100 -78 759 220 
Q 419 519 350 1059 
z
M 2653 3081 
Q 2653 3566 2395 3850 
Q 2138 4134 1775 4134 
Q 1400 4134 1122 3828 
Q 844 3522 844 3034 
Q 844 2597 1108 2323 
Q 1372 2050 1759 2050 
Q 2150 2050 2401 2323 
Q 2653 2597 2653 3081 
z
" id="ArialMT-39" transform="scale(0.015625)"/>
       </defs>
       <use xlink:href="#ArialMT-39"/>
       <use x="55.615234" xlink:href="#ArialMT-30"/>
      </g>
     </g>
    </g>
    <g id="xtick_2">
     <g id="line2d_19"/>
     <g id="text_11">
      <!-- 100 -->
      <g style="fill:#262626;" transform="translate(99.373439 544.990937)scale(0.1 -0.1)">
       <use xlink:href="#ArialMT-31"/>
       <use x="55.615234" xlink:href="#ArialMT-30"/>
       <use x="111.230469" xlink:href="#ArialMT-30"/>
      </g>
     </g>
    </g>
    <g id="xtick_3">
     <g id="line2d_20"/>
     <g id="text_12">
      <!-- 110 -->
      <g style="fill:#262626;" transform="translate(150.751223 544.990937)scale(0.1 -0.1)">
       <use xlink:href="#ArialMT-31"/>
       <use x="48.240234" xlink:href="#ArialMT-31"/>
       <use x="103.855469" xlink:href="#ArialMT-30"/>
      </g>
     </g>
    </g>
    <g id="xtick_4">
     <g id="line2d_21"/>
     <g id="text_13">
      <!-- 120 -->
      <g style="fill:#262626;" transform="translate(201.391508 544.990937)scale(0.1 -0.1)">
       <use xlink:href="#ArialMT-31"/>
       <use x="55.615234" xlink:href="#ArialMT-32"/>
       <use x="111.230469" xlink:href="#ArialMT-30"/>
      </g>
     </g>
    </g>
    <g id="xtick_5">
     <g id="line2d_22"/>
     <g id="text_14">
      <!-- 130 -->
      <g style="fill:#262626;" transform="translate(252.400542 544.990937)scale(0.1 -0.1)">
       <use xlink:href="#ArialMT-31"/>
       <use x="55.615234" xlink:href="#ArialMT-33"/>
       <use x="111.230469" xlink:href="#ArialMT-30"/>
      </g>
     </g>
    </g>
    <g id="xtick_6">
     <g id="line2d_23"/>
     <g id="text_15">
      <!-- 140 -->
      <g style="fill:#262626;" transform="translate(303.409576 544.990937)scale(0.1 -0.1)">
       <use xlink:href="#ArialMT-31"/>
       <use x="55.615234" xlink:href="#ArialMT-34"/>
       <use x="111.230469" xlink:href="#ArialMT-30"/>
      </g>
     </g>
    </g>
    <g id="xtick_7">
     <g id="line2d_24"/>
     <g id="text_16">
      <!-- 150 -->
      <g style="fill:#262626;" transform="translate(354.41861 544.990937)scale(0.1 -0.1)">
       <defs>
        <path d="M 266 1200 
L 856 1250 
Q 922 819 1161 601 
Q 1400 384 1738 384 
Q 2144 384 2425 690 
Q 2706 997 2706 1503 
Q 2706 1984 2436 2262 
Q 2166 2541 1728 2541 
Q 1456 2541 1237 2417 
Q 1019 2294 894 2097 
L 366 2166 
L 809 4519 
L 3088 4519 
L 3088 3981 
L 1259 3981 
L 1013 2750 
Q 1425 3038 1878 3038 
Q 2478 3038 2890 2622 
Q 3303 2206 3303 1553 
Q 3303 931 2941 478 
Q 2500 -78 1738 -78 
Q 1113 -78 717 272 
Q 322 622 266 1200 
z
" id="ArialMT-35" transform="scale(0.015625)"/>
       </defs>
       <use xlink:href="#ArialMT-31"/>
       <use x="55.615234" xlink:href="#ArialMT-35"/>
       <use x="111.230469" xlink:href="#ArialMT-30"/>
      </g>
     </g>
    </g>
    <g id="text_17">
     <!-- timescale (ms) -->
     <g style="fill:#262626;" transform="translate(194.462892 558.986094)scale(0.11 -0.11)">
      <defs>
       <path d="M 197 991 
L 753 1078 
Q 800 744 1014 566 
Q 1228 388 1613 388 
Q 2000 388 2187 545 
Q 2375 703 2375 916 
Q 2375 1106 2209 1216 
Q 2094 1291 1634 1406 
Q 1016 1563 777 1677 
Q 538 1791 414 1992 
Q 291 2194 291 2438 
Q 291 2659 392 2848 
Q 494 3038 669 3163 
Q 800 3259 1026 3326 
Q 1253 3394 1513 3394 
Q 1903 3394 2198 3281 
Q 2494 3169 2634 2976 
Q 2775 2784 2828 2463 
L 2278 2388 
Q 2241 2644 2061 2787 
Q 1881 2931 1553 2931 
Q 1166 2931 1000 2803 
Q 834 2675 834 2503 
Q 834 2394 903 2306 
Q 972 2216 1119 2156 
Q 1203 2125 1616 2013 
Q 2213 1853 2448 1751 
Q 2684 1650 2818 1456 
Q 2953 1263 2953 975 
Q 2953 694 2789 445 
Q 2625 197 2315 61 
Q 2006 -75 1616 -75 
Q 969 -75 630 194 
Q 291 463 197 991 
z
" id="ArialMT-73" transform="scale(0.015625)"/>
       <path d="M 2588 1216 
L 3141 1144 
Q 3050 572 2676 248 
Q 2303 -75 1759 -75 
Q 1078 -75 664 370 
Q 250 816 250 1647 
Q 250 2184 428 2587 
Q 606 2991 970 3192 
Q 1334 3394 1763 3394 
Q 2303 3394 2647 3120 
Q 2991 2847 3088 2344 
L 2541 2259 
Q 2463 2594 2264 2762 
Q 2066 2931 1784 2931 
Q 1359 2931 1093 2626 
Q 828 2322 828 1663 
Q 828 994 1084 691 
Q 1341 388 1753 388 
Q 2084 388 2306 591 
Q 2528 794 2588 1216 
z
" id="ArialMT-63" transform="scale(0.015625)"/>
       <path d="M 1497 -1347 
Q 1031 -759 709 28 
Q 388 816 388 1659 
Q 388 2403 628 3084 
Q 909 3875 1497 4659 
L 1900 4659 
Q 1522 4009 1400 3731 
Q 1209 3300 1100 2831 
Q 966 2247 966 1656 
Q 966 153 1900 -1347 
L 1497 -1347 
z
" id="ArialMT-28" transform="scale(0.015625)"/>
       <path d="M 791 -1347 
L 388 -1347 
Q 1322 153 1322 1656 
Q 1322 2244 1188 2822 
Q 1081 3291 891 3722 
Q 769 4003 388 4659 
L 791 4659 
Q 1378 3875 1659 3084 
Q 1900 2403 1900 1659 
Q 1900 816 1576 28 
Q 1253 -759 791 -1347 
z
" id="ArialMT-29" transform="scale(0.015625)"/>
      </defs>
      <use xlink:href="#ArialMT-74"/>
      <use x="27.783203" xlink:href="#ArialMT-69"/>
      <use x="50" xlink:href="#ArialMT-6d"/>
      <use x="133.300781" xlink:href="#ArialMT-65"/>
      <use x="188.916016" xlink:href="#ArialMT-73"/>
      <use x="238.916016" xlink:href="#ArialMT-63"/>
      <use x="288.916016" xlink:href="#ArialMT-61"/>
      <use x="344.53125" xlink:href="#ArialMT-6c"/>
      <use x="366.748047" xlink:href="#ArialMT-65"/>
      <use x="422.363281" xlink:href="#ArialMT-20"/>
      <use x="450.146484" xlink:href="#ArialMT-28"/>
      <use x="483.447266" xlink:href="#ArialMT-6d"/>
      <use x="566.748047" xlink:href="#ArialMT-73"/>
      <use x="616.748047" xlink:href="#ArialMT-29"/>
     </g>
    </g>
   </g>
   <g id="matplotlib.axis_6">
    <g id="ytick_6">
     <g id="line2d_25"/>
     <g id="text_18">
      <!-- 0.000 -->
      <g style="fill:#262626;" transform="translate(21.38875 534.412031)scale(0.1 -0.1)">
       <use xlink:href="#ArialMT-30"/>
       <use x="55.615234" xlink:href="#ArialMT-2e"/>
       <use x="83.398438" xlink:href="#ArialMT-30"/>
       <use x="139.013672" xlink:href="#ArialMT-30"/>
       <use x="194.628906" xlink:href="#ArialMT-30"/>
      </g>
     </g>
    </g>
    <g id="ytick_7">
     <g id="line2d_26"/>
     <g id="text_19">
      <!-- 0.005 -->
      <g style="fill:#262626;" transform="translate(21.38875 505.049997)scale(0.1 -0.1)">
       <use xlink:href="#ArialMT-30"/>
       <use x="55.615234" xlink:href="#ArialMT-2e"/>
       <use x="83.398438" xlink:href="#ArialMT-30"/>
       <use x="139.013672" xlink:href="#ArialMT-30"/>
       <use x="194.628906" xlink:href="#ArialMT-35"/>
      </g>
     </g>
    </g>
    <g id="ytick_8">
     <g id="line2d_27"/>
     <g id="text_20">
      <!-- 0.010 -->
      <g style="fill:#262626;" transform="translate(21.38875 475.687962)scale(0.1 -0.1)">
       <use xlink:href="#ArialMT-30"/>
       <use x="55.615234" xlink:href="#ArialMT-2e"/>
       <use x="83.398438" xlink:href="#ArialMT-30"/>
       <use x="139.013672" xlink:href="#ArialMT-31"/>
       <use x="194.628906" xlink:href="#ArialMT-30"/>
      </g>
     </g>
    </g>
    <g id="ytick_9">
     <g id="line2d_28"/>
     <g id="text_21">
      <!-- 0.015 -->
      <g style="fill:#262626;" transform="translate(21.38875 446.325928)scale(0.1 -0.1)">
       <use xlink:href="#ArialMT-30"/>
       <use x="55.615234" xlink:href="#ArialMT-2e"/>
       <use x="83.398438" xlink:href="#ArialMT-30"/>
       <use x="139.013672" xlink:href="#ArialMT-31"/>
       <use x="194.628906" xlink:href="#ArialMT-35"/>
      </g>
     </g>
    </g>
    <g id="ytick_10">
     <g id="line2d_29"/>
     <g id="text_22">
      <!-- 0.020 -->
      <g style="fill:#262626;" transform="translate(21.38875 416.963893)scale(0.1 -0.1)">
       <use xlink:href="#ArialMT-30"/>
       <use x="55.615234" xlink:href="#ArialMT-2e"/>
       <use x="83.398438" xlink:href="#ArialMT-30"/>
       <use x="139.013672" xlink:href="#ArialMT-32"/>
       <use x="194.628906" xlink:href="#ArialMT-30"/>
      </g>
     </g>
    </g>
    <g id="ytick_11">
     <g id="line2d_30"/>
     <g id="text_23">
      <!-- 0.025 -->
      <g style="fill:#262626;" transform="translate(21.38875 387.601858)scale(0.1 -0.1)">
       <use xlink:href="#ArialMT-30"/>
       <use x="55.615234" xlink:href="#ArialMT-2e"/>
       <use x="83.398438" xlink:href="#ArialMT-30"/>
       <use x="139.013672" xlink:href="#ArialMT-32"/>
       <use x="194.628906" xlink:href="#ArialMT-35"/>
      </g>
     </g>
    </g>
    <g id="ytick_12">
     <g id="line2d_31"/>
     <g id="text_24">
      <!-- 0.030 -->
      <g style="fill:#262626;" transform="translate(21.38875 358.239824)scale(0.1 -0.1)">
       <use xlink:href="#ArialMT-30"/>
       <use x="55.615234" xlink:href="#ArialMT-2e"/>
       <use x="83.398438" xlink:href="#ArialMT-30"/>
       <use x="139.013672" xlink:href="#ArialMT-33"/>
       <use x="194.628906" xlink:href="#ArialMT-30"/>
      </g>
     </g>
    </g>
    <g id="ytick_13">
     <g id="line2d_32"/>
     <g id="text_25">
      <!-- 0.035 -->
      <g style="fill:#262626;" transform="translate(21.38875 328.877789)scale(0.1 -0.1)">
       <use xlink:href="#ArialMT-30"/>
       <use x="55.615234" xlink:href="#ArialMT-2e"/>
       <use x="83.398438" xlink:href="#ArialMT-30"/>
       <use x="139.013672" xlink:href="#ArialMT-33"/>
       <use x="194.628906" xlink:href="#ArialMT-35"/>
      </g>
     </g>
    </g>
    <g id="ytick_14">
     <g id="line2d_33"/>
     <g id="text_26">
      <!-- 0.040 -->
      <g style="fill:#262626;" transform="translate(21.38875 299.515755)scale(0.1 -0.1)">
       <use xlink:href="#ArialMT-30"/>
       <use x="55.615234" xlink:href="#ArialMT-2e"/>
       <use x="83.398438" xlink:href="#ArialMT-30"/>
       <use x="139.013672" xlink:href="#ArialMT-34"/>
       <use x="194.628906" xlink:href="#ArialMT-30"/>
      </g>
     </g>
    </g>
    <g id="text_27">
     <!-- probability -->
     <g style="fill:#262626;" transform="translate(15.073594 434.087812)rotate(-90)scale(0.11 -0.11)">
      <use xlink:href="#ArialMT-70"/>
      <use x="55.615234" xlink:href="#ArialMT-72"/>
      <use x="88.916016" xlink:href="#ArialMT-6f"/>
      <use x="144.53125" xlink:href="#ArialMT-62"/>
      <use x="200.146484" xlink:href="#ArialMT-61"/>
      <use x="255.761719" xlink:href="#ArialMT-62"/>
      <use x="311.376953" xlink:href="#ArialMT-69"/>
      <use x="333.59375" xlink:href="#ArialMT-6c"/>
      <use x="355.810547" xlink:href="#ArialMT-69"/>
      <use x="378.027344" xlink:href="#ArialMT-74"/>
      <use x="405.810547" xlink:href="#ArialMT-79"/>
     </g>
    </g>
   </g>
   <g id="patch_33">
    <path clip-path="url(#p8bd91bb6c1)" d="M 69.483636 530.833125 
L 101.629659 530.833125 
L 101.629659 512.196555 
L 69.483636 512.196555 
z
" style="fill:#4c72b0;opacity:0.6;"/>
   </g>
   <g id="patch_34">
    <path clip-path="url(#p8bd91bb6c1)" d="M 101.629659 530.833125 
L 133.775682 530.833125 
L 133.775682 450.695874 
L 101.629659 450.695874 
z
" style="fill:#4c72b0;opacity:0.6;"/>
   </g>
   <g id="patch_35">
    <path clip-path="url(#p8bd91bb6c1)" d="M 133.775682 530.833125 
L 165.921705 530.833125 
L 165.921705 329.558168 
L 133.775682 329.558168 
z
" style="fill:#4c72b0;opacity:0.6;"/>
   </g>
   <g id="patch_36">
    <path clip-path="url(#p8bd91bb6c1)" d="M 165.921705 530.833125 
L 198.067728 530.833125 
L 198.067728 298.807827 
L 165.921705 298.807827 
z
" style="fill:#4c72b0;opacity:0.6;"/>
   </g>
   <g id="patch_37">
    <path clip-path="url(#p8bd91bb6c1)" d="M 198.067728 530.833125 
L 230.213751 530.833125 
L 230.213751 323.967197 
L 198.067728 323.967197 
z
" style="fill:#4c72b0;opacity:0.6;"/>
   </g>
   <g id="patch_38">
    <path clip-path="url(#p8bd91bb6c1)" d="M 230.213751 530.833125 
L 262.359774 530.833125 
L 262.359774 406.899934 
L 230.213751 406.899934 
z
" style="fill:#4c72b0;opacity:0.6;"/>
   </g>
   <g id="patch_39">
    <path clip-path="url(#p8bd91bb6c1)" d="M 262.359774 530.833125 
L 294.505797 530.833125 
L 294.505797 482.378043 
L 262.359774 482.378043 
z
" style="fill:#4c72b0;opacity:0.6;"/>
   </g>
   <g id="patch_40">
    <path clip-path="url(#p8bd91bb6c1)" d="M 294.505797 530.833125 
L 326.65182 530.833125 
L 326.65182 517.787526 
L 294.505797 517.787526 
z
" style="fill:#4c72b0;opacity:0.6;"/>
   </g>
   <g id="patch_41">
    <path clip-path="url(#p8bd91bb6c1)" d="M 326.65182 530.833125 
L 358.797843 530.833125 
L 358.797843 528.037639 
L 326.65182 528.037639 
z
" style="fill:#4c72b0;opacity:0.6;"/>
   </g>
   <g id="patch_42">
    <path clip-path="url(#p8bd91bb6c1)" d="M 358.797843 530.833125 
L 390.943866 530.833125 
L 390.943866 526.173982 
L 358.797843 526.173982 
z
" style="fill:#4c72b0;opacity:0.6;"/>
   </g>
   <g id="line2d_34">
    <path clip-path="url(#p8bd91bb6c1)" d="M 191.161372 530.833125 
L 191.161372 287.206562 
" style="fill:none;stroke:#ff0000;stroke-dasharray:6.475,2.8;stroke-dashoffset:0;stroke-opacity:0.7;stroke-width:1.75;"/>
   </g>
   <g id="line2d_35">
    <path clip-path="url(#p8bd91bb6c1)" d="M 104.829852 530.833125 
L 104.829852 287.206562 
" style="fill:none;stroke:#008000;stroke-dasharray:6.475,2.8;stroke-dashoffset:0;stroke-opacity:0.7;stroke-width:1.75;"/>
   </g>
   <g id="line2d_36">
    <path clip-path="url(#p8bd91bb6c1)" d="M 209.732914 530.833125 
L 209.732914 287.206562 
" style="fill:none;stroke:#ffff00;stroke-dasharray:6.475,2.8;stroke-dashoffset:0;stroke-opacity:0.7;stroke-width:1.75;"/>
   </g>
   <g id="patch_43">
    <path d="M 53.410625 530.833125 
L 53.410625 287.206562 
" style="fill:none;"/>
   </g>
   <g id="patch_44">
    <path d="M 407.016878 530.833125 
L 407.016878 287.206562 
" style="fill:none;"/>
   </g>
   <g id="patch_45">
    <path d="M 53.410625 530.833125 
L 407.016878 530.833125 
" style="fill:none;"/>
   </g>
   <g id="patch_46">
    <path d="M 53.410625 287.206562 
L 407.016878 287.206562 
" style="fill:none;"/>
   </g>
  </g>
  <g id="axes_4">
   <g id="patch_47">
    <path d="M 417.816878 530.833125 
L 771.42313 530.833125 
L 771.42313 287.206562 
L 417.816878 287.206562 
z
" style="fill:#eaeaf2;"/>
   </g>
   <g id="matplotlib.axis_7">
    <g id="xtick_8">
     <g id="line2d_37"/>
     <g id="text_28">
      <!-- 90 -->
      <g style="fill:#262626;" transform="translate(438.023457 544.990937)scale(0.1 -0.1)">
       <use xlink:href="#ArialMT-39"/>
       <use x="55.615234" xlink:href="#ArialMT-30"/>
      </g>
     </g>
    </g>
    <g id="xtick_9">
     <g id="line2d_38"/>
     <g id="text_29">
      <!-- 100 -->
      <g style="fill:#262626;" transform="translate(489.387035 544.990937)scale(0.1 -0.1)">
       <use xlink:href="#ArialMT-31"/>
       <use x="55.615234" xlink:href="#ArialMT-30"/>
       <use x="111.230469" xlink:href="#ArialMT-30"/>
      </g>
     </g>
    </g>
    <g id="xtick_10">
     <g id="line2d_39"/>
     <g id="text_30">
      <!-- 110 -->
      <g style="fill:#262626;" transform="translate(543.899833 544.990937)scale(0.1 -0.1)">
       <use xlink:href="#ArialMT-31"/>
       <use x="48.240234" xlink:href="#ArialMT-31"/>
       <use x="103.855469" xlink:href="#ArialMT-30"/>
      </g>
     </g>
    </g>
    <g id="xtick_11">
     <g id="line2d_40"/>
     <g id="text_31">
      <!-- 120 -->
      <g style="fill:#262626;" transform="translate(597.675131 544.990937)scale(0.1 -0.1)">
       <use xlink:href="#ArialMT-31"/>
       <use x="55.615234" xlink:href="#ArialMT-32"/>
       <use x="111.230469" xlink:href="#ArialMT-30"/>
      </g>
     </g>
    </g>
    <g id="xtick_12">
     <g id="line2d_41"/>
     <g id="text_32">
      <!-- 130 -->
      <g style="fill:#262626;" transform="translate(651.819179 544.990937)scale(0.1 -0.1)">
       <use xlink:href="#ArialMT-31"/>
       <use x="55.615234" xlink:href="#ArialMT-33"/>
       <use x="111.230469" xlink:href="#ArialMT-30"/>
      </g>
     </g>
    </g>
    <g id="xtick_13">
     <g id="line2d_42"/>
     <g id="text_33">
      <!-- 140 -->
      <g style="fill:#262626;" transform="translate(705.963226 544.990937)scale(0.1 -0.1)">
       <use xlink:href="#ArialMT-31"/>
       <use x="55.615234" xlink:href="#ArialMT-34"/>
       <use x="111.230469" xlink:href="#ArialMT-30"/>
      </g>
     </g>
    </g>
    <g id="xtick_14">
     <g id="line2d_43"/>
     <g id="text_34">
      <!-- 150 -->
      <g style="fill:#262626;" transform="translate(760.107274 544.990937)scale(0.1 -0.1)">
       <use xlink:href="#ArialMT-31"/>
       <use x="55.615234" xlink:href="#ArialMT-35"/>
       <use x="111.230469" xlink:href="#ArialMT-30"/>
      </g>
     </g>
    </g>
    <g id="text_35">
     <!-- timescale (ms) -->
     <g style="fill:#262626;" transform="translate(558.869145 558.986094)scale(0.11 -0.11)">
      <use xlink:href="#ArialMT-74"/>
      <use x="27.783203" xlink:href="#ArialMT-69"/>
      <use x="50" xlink:href="#ArialMT-6d"/>
      <use x="133.300781" xlink:href="#ArialMT-65"/>
      <use x="188.916016" xlink:href="#ArialMT-73"/>
      <use x="238.916016" xlink:href="#ArialMT-63"/>
      <use x="288.916016" xlink:href="#ArialMT-61"/>
      <use x="344.53125" xlink:href="#ArialMT-6c"/>
      <use x="366.748047" xlink:href="#ArialMT-65"/>
      <use x="422.363281" xlink:href="#ArialMT-20"/>
      <use x="450.146484" xlink:href="#ArialMT-28"/>
      <use x="483.447266" xlink:href="#ArialMT-6d"/>
      <use x="566.748047" xlink:href="#ArialMT-73"/>
      <use x="616.748047" xlink:href="#ArialMT-29"/>
     </g>
    </g>
   </g>
   <g id="matplotlib.axis_8"/>
   <g id="patch_48">
    <path clip-path="url(#pce15e9fd17)" d="M 433.889889 530.833125 
L 466.035912 530.833125 
L 466.035912 527.759942 
L 433.889889 527.759942 
z
" style="fill:#4c72b0;opacity:0.6;"/>
   </g>
   <g id="patch_49">
    <path clip-path="url(#pce15e9fd17)" d="M 466.035912 530.833125 
L 498.181935 530.833125 
L 498.181935 510.089141 
L 466.035912 510.089141 
z
" style="fill:#4c72b0;opacity:0.6;"/>
   </g>
   <g id="patch_50">
    <path clip-path="url(#pce15e9fd17)" d="M 498.181935 530.833125 
L 530.327958 530.833125 
L 530.327958 443.247417 
L 498.181935 443.247417 
z
" style="fill:#4c72b0;opacity:0.6;"/>
   </g>
   <g id="patch_51">
    <path clip-path="url(#pce15e9fd17)" d="M 530.327958 530.833125 
L 562.473981 530.833125 
L 562.473981 374.8691 
L 530.327958 374.8691 
z
" style="fill:#4c72b0;opacity:0.6;"/>
   </g>
   <g id="patch_52">
    <path clip-path="url(#pce15e9fd17)" d="M 562.473981 530.833125 
L 594.620004 530.833125 
L 594.620004 298.807827 
L 562.473981 298.807827 
z
" style="fill:#4c72b0;opacity:0.6;"/>
   </g>
   <g id="patch_53">
    <path clip-path="url(#pce15e9fd17)" d="M 594.620004 530.833125 
L 626.766027 530.833125 
L 626.766027 391.00331 
L 594.620004 391.00331 
z
" style="fill:#4c72b0;opacity:0.6;"/>
   </g>
   <g id="patch_54">
    <path clip-path="url(#pce15e9fd17)" d="M 626.766027 530.833125 
L 658.91205 530.833125 
L 658.91205 446.320599 
L 626.766027 446.320599 
z
" style="fill:#4c72b0;opacity:0.6;"/>
   </g>
   <g id="patch_55">
    <path clip-path="url(#pce15e9fd17)" d="M 658.91205 530.833125 
L 691.058073 530.833125 
L 691.058073 496.259819 
L 658.91205 496.259819 
z
" style="fill:#4c72b0;opacity:0.6;"/>
   </g>
   <g id="patch_56">
    <path clip-path="url(#pce15e9fd17)" d="M 691.058073 530.833125 
L 723.204096 530.833125 
L 723.204096 522.381872 
L 691.058073 522.381872 
z
" style="fill:#4c72b0;opacity:0.6;"/>
   </g>
   <g id="patch_57">
    <path clip-path="url(#pce15e9fd17)" d="M 723.204096 530.833125 
L 755.350119 530.833125 
L 755.350119 529.296534 
L 723.204096 529.296534 
z
" style="fill:#4c72b0;opacity:0.6;"/>
   </g>
   <g id="line2d_44">
    <path clip-path="url(#pce15e9fd17)" d="M 580.907487 530.833125 
L 580.907487 287.206562 
" style="fill:none;stroke:#ff0000;stroke-dasharray:6.475,2.8;stroke-dashoffset:0;stroke-opacity:0.7;stroke-width:1.75;"/>
   </g>
   <g id="line2d_45">
    <path clip-path="url(#pce15e9fd17)" d="M 560.43892 530.833125 
L 560.43892 287.206562 
" style="fill:none;stroke:#008000;stroke-dasharray:6.475,2.8;stroke-dashoffset:0;stroke-opacity:0.7;stroke-width:1.75;"/>
   </g>
   <g id="line2d_46">
    <path clip-path="url(#pce15e9fd17)" d="M 606.016537 530.833125 
L 606.016537 287.206562 
" style="fill:none;stroke:#ffff00;stroke-dasharray:6.475,2.8;stroke-dashoffset:0;stroke-opacity:0.7;stroke-width:1.75;"/>
   </g>
   <g id="patch_58">
    <path d="M 417.816878 530.833125 
L 417.816878 287.206562 
" style="fill:none;"/>
   </g>
   <g id="patch_59">
    <path d="M 771.42313 530.833125 
L 771.42313 287.206562 
" style="fill:none;"/>
   </g>
   <g id="patch_60">
    <path d="M 417.816878 530.833125 
L 771.42313 530.833125 
" style="fill:none;"/>
   </g>
   <g id="patch_61">
    <path d="M 417.816878 287.206562 
L 771.42313 287.206562 
" style="fill:none;"/>
   </g>
  </g>
  <g id="text_36">
   <!-- True tau = 120 -->
   <g style="fill:#262626;" transform="translate(353.348438 15.789375)scale(0.12 -0.12)">
    <defs>
     <path d="M 1659 0 
L 1659 4041 
L 150 4041 
L 150 4581 
L 3781 4581 
L 3781 4041 
L 2266 4041 
L 2266 0 
L 1659 0 
z
" id="ArialMT-54" transform="scale(0.015625)"/>
     <path d="M 3381 2694 
L 356 2694 
L 356 3219 
L 3381 3219 
L 3381 2694 
z
M 3381 1303 
L 356 1303 
L 356 1828 
L 3381 1828 
L 3381 1303 
z
" id="ArialMT-3d" transform="scale(0.015625)"/>
    </defs>
    <use xlink:href="#ArialMT-54"/>
    <use x="57.333984" xlink:href="#ArialMT-72"/>
    <use x="90.634766" xlink:href="#ArialMT-75"/>
    <use x="146.25" xlink:href="#ArialMT-65"/>
    <use x="201.865234" xlink:href="#ArialMT-20"/>
    <use x="229.648438" xlink:href="#ArialMT-74"/>
    <use x="257.431641" xlink:href="#ArialMT-61"/>
    <use x="313.046875" xlink:href="#ArialMT-75"/>
    <use x="368.662109" xlink:href="#ArialMT-20"/>
    <use x="396.445312" xlink:href="#ArialMT-3d"/>
    <use x="454.84375" xlink:href="#ArialMT-20"/>
    <use x="482.626953" xlink:href="#ArialMT-31"/>
    <use x="538.242188" xlink:href="#ArialMT-32"/>
    <use x="593.857422" xlink:href="#ArialMT-30"/>
   </g>
  </g>
 </g>
 <defs>
  <clipPath id="p884d8e8292">
   <rect height="243.626562" width="353.606253" x="53.410625" y="27.28"/>
  </clipPath>
  <clipPath id="pcf0bea6e9d">
   <rect height="243.626562" width="353.606253" x="417.816878" y="27.28"/>
  </clipPath>
  <clipPath id="p8bd91bb6c1">
   <rect height="243.626563" width="353.606253" x="53.410625" y="287.206562"/>
  </clipPath>
  <clipPath id="pce15e9fd17">
   <rect height="243.626563" width="353.606253" x="417.816878" y="287.206562"/>
  </clipPath>
 </defs>
</svg>
